# xmcd
#
# Track frame offsets: 
#        150
#        13037
#        25890
#        41475
#        54847
#        67835
#        82127
#        96762
#        113287
#        127105
#        141700
#        156820
#
# Disc length: 2265 seconds
#
# Revision: 0
# Processed by: cddbd v1.5.2PL0 Copyright (c) Steve Scherf et al.
# Submitted via: ExactAudioCopy v0.95b3
#
DISCID=9908d70c
DTITLE=New Road - The Message
DYEAR=2005
DGENRE=Bluegrass
TTITLE0=Render Your Heart
TTITLE1=Nothing
TTITLE2=Servant's Prayer
TTITLE3=I Wonder What Our Lord Was Thinking
TTITLE4=Just A Little More Time
TTITLE5=One Drop
TTITLE6=Thank You For The Valley
TTITLE7=Waiting, Watching, Praying
TTITLE8=Resting In The Cross
TTITLE9=Just Look Up To God
TTITLE10=The Peace He Brings
TTITLE11=They Whipped Him Up The Hill
EXTD=
EXTT0=
EXTT1=
EXTT2=
EXTT3=
EXTT4=
EXTT5=
EXTT6=
EXTT7=
EXTT8=
EXTT9=
EXTT10=
EXTT11=
PLAYORDER=
